<svg width="32" height="32" viewBox="0 0 32 32" fill="none" xmlns="http://www.w3.org/2000/svg">
<rect width="32" height="32" fill="white"/>
<path d="M8.45028 16.4631C8.31771 17.2396 8.06084 17.8989 7.67969 18.4411C7.3009 18.9832 6.83807 19.3951 6.29119 19.6768C5.74669 19.9586 5.15956 20.0994 4.52983 20.0994C3.86932 20.0994 3.29995 19.9491 2.82173 19.6484C2.34588 19.3478 2.00142 18.9134 1.78835 18.3452C1.57528 17.7746 1.53504 17.0869 1.66761 16.282C1.79545 15.5031 2.04995 14.8426 2.43111 14.3004C2.81226 13.7559 3.27746 13.3416 3.8267 13.0575C4.37595 12.7711 4.96662 12.6278 5.59872 12.6278C6.2545 12.6278 6.82031 12.7794 7.29616 13.0824C7.77438 13.3854 8.11884 13.8234 8.32955 14.3963C8.54261 14.9669 8.58286 15.6558 8.45028 16.4631ZM6.91974 16.282C7.0026 15.7824 6.99905 15.3634 6.90909 15.0249C6.8215 14.6839 6.66051 14.4259 6.42614 14.2507C6.19176 14.0755 5.89583 13.9879 5.53835 13.9879C5.15009 13.9879 4.7938 14.085 4.46946 14.2791C4.14749 14.4732 3.87524 14.755 3.6527 15.1243C3.43253 15.4912 3.27983 15.9375 3.1946 16.4631C3.10938 16.965 3.11174 17.384 3.2017 17.7202C3.29403 18.0563 3.45857 18.3108 3.69531 18.4837C3.93442 18.6541 4.23153 18.7393 4.58665 18.7393C4.97254 18.7393 5.32528 18.6446 5.64489 18.4553C5.96686 18.2635 6.23793 17.9853 6.4581 17.6207C6.67827 17.2538 6.83215 16.8075 6.91974 16.282ZM16.1944 15.2734H14.6603C14.6651 15.0698 14.639 14.8899 14.5822 14.7337C14.5254 14.575 14.4402 14.4401 14.3265 14.3288C14.2153 14.2176 14.0791 14.1335 13.9181 14.0767C13.7572 14.0175 13.5761 13.9879 13.3748 13.9879C12.9866 13.9879 12.6303 14.085 12.3059 14.2791C11.9816 14.4732 11.7082 14.755 11.4856 15.1243C11.2631 15.4912 11.1092 15.9351 11.024 16.456C10.9411 16.9579 10.9458 17.3781 11.0382 17.7166C11.1305 18.0552 11.2939 18.3108 11.5282 18.4837C11.765 18.6541 12.0597 18.7393 12.4125 18.7393C12.6303 18.7393 12.8374 18.7121 13.0339 18.6577C13.2304 18.6009 13.4092 18.5204 13.5701 18.4162C13.7335 18.3097 13.8755 18.1806 13.9963 18.0291C14.1194 17.8776 14.2153 17.706 14.2839 17.5142H15.8287C15.7316 17.848 15.5801 18.17 15.3741 18.4801C15.1705 18.7902 14.9184 19.0672 14.6177 19.3111C14.3171 19.5526 13.975 19.7443 13.5914 19.8864C13.2079 20.0284 12.7877 20.0994 12.3308 20.0994C11.6703 20.0994 11.1033 19.9479 10.6298 19.6449C10.1587 19.3419 9.81895 18.9051 9.61062 18.3345C9.40228 17.764 9.36322 17.0762 9.49343 16.2713C9.62364 15.4924 9.87814 14.8319 10.2569 14.2898C10.6381 13.7453 11.1009 13.3321 11.6454 13.0504C12.1923 12.7687 12.777 12.6278 13.3997 12.6278C13.8329 12.6278 14.2247 12.687 14.5751 12.8054C14.9255 12.9238 15.2238 13.0966 15.47 13.3239C15.7186 13.5488 15.9056 13.8246 16.0311 14.1513C16.1565 14.478 16.211 14.852 16.1944 15.2734ZM16.5194 20L17.7267 12.7273H20.5961C21.1453 12.7273 21.5963 12.8326 21.949 13.0433C22.3042 13.2517 22.5527 13.5417 22.6948 13.9134C22.8392 14.2827 22.8723 14.7088 22.7942 15.1918C22.7137 15.6771 22.5385 16.1044 22.2686 16.4737C22.0011 16.8407 21.6531 17.1271 21.2246 17.3331C20.7961 17.5391 20.3013 17.642 19.7402 17.642H17.9114L18.1138 16.4098H19.6941C19.9924 16.4098 20.2469 16.3589 20.4576 16.2571C20.6706 16.1529 20.8399 16.0097 20.9654 15.8274C21.0909 15.6428 21.1725 15.4309 21.2104 15.1918C21.2507 14.9479 21.2376 14.736 21.1713 14.5561C21.1051 14.3762 20.9831 14.2365 20.8056 14.1371C20.6304 14.0353 20.3948 13.9844 20.0989 13.9844H19.062L18.057 20H16.5194ZM25.5153 12.7273L26.3604 18.2528H26.4279L29.1019 12.7273H30.8065L27.092 20H25.1104L23.8072 12.7273H25.5153Z" fill="black"/>
<path d="M5 7V6.75H4.75V7H5ZM27 7L24.5 5.55662V8.44338L27 7ZM5 7V7.25H24.75V7V6.75H5V7ZM5 13H5.25V7H5H4.75V13H5Z" fill="black"/>
<path d="M26 25V25.25H26.25V25H26ZM4 25L6.5 26.4434V23.5566L4 25ZM26 19H25.75V19.5H26H26.25V19H26ZM26 20.5H25.75V21.5H26H26.25V20.5H26ZM26 22.5H25.75V23.5H26H26.25V22.5H26ZM26 24.5L25.75 24.5V25H26H26.25V24.5H26ZM26 25V24.75H25.5V25V25.25H26V25ZM24.5 25V24.75H23.5V25V25.25H24.5V25ZM22.5 25V24.75H21.5V25V25.25H22.5V25ZM20.5 25V24.75H19.5V25V25.25H20.5V25ZM18.5 25V24.75H17.5V25V25.25H18.5V25ZM16.5 25V24.75H15.5V25V25.25H16.5V25ZM14.5 25V24.75H13.5V25V25.25H14.5V25ZM12.5 25V24.75H11.5V25V25.25H12.5V25ZM10.5 25V24.75H9.5V25V25.25H10.5V25ZM8.5 25V24.75H7.5V25V25.25H8.5V25ZM6.5 25V24.75H5.5V25V25.25H6.5V25Z" fill="black"/>
<circle cx="22" cy="7" r="1" fill="#377EB8"/>
<circle cx="19" cy="7" r="1" fill="#E41A1C"/>
<circle cx="16" cy="7" r="1" fill="#4DAF4A"/>
<circle cx="13" cy="7" r="1" fill="#984EA3"/>
</svg>
